<?xml version="1.0" encoding="utf-8" standalone="no"?>
<!DOCTYPE svg PUBLIC "-//W3C//DTD SVG 1.1//EN"
  "http://www.w3.org/Graphics/SVG/1.1/DTD/svg11.dtd">
<svg xmlns:xlink="http://www.w3.org/1999/xlink" width="551.585938pt" height="372.224062pt" viewBox="0 0 551.585938 372.224062" xmlns="http://www.w3.org/2000/svg" version="1.1">
 <metadata>
  <rdf:RDF xmlns:dc="http://purl.org/dc/elements/1.1/" xmlns:cc="http://creativecommons.org/ns#" xmlns:rdf="http://www.w3.org/1999/02/22-rdf-syntax-ns#">
   <cc:Work>
    <dc:type rdf:resource="http://purl.org/dc/dcmitype/StillImage"/>
    <dc:date>2026-07-02T09:50:12.321316</dc:date>
    <dc:format>image/svg+xml</dc:format>
    <dc:creator>
     <cc:Agent>
      <dc:title>Matplotlib v3.10.1, https://matplotlib.org/</dc:title>
     </cc:Agent>
    </dc:creator>
   </cc:Work>
  </rdf:RDF>
 </metadata>
 <defs>
  <style type="text/css">*{stroke-linejoin: round; stroke-linecap: butt}</style>
 </defs>
 <g id="figure_1">
  <g id="patch_1">
   <path d="M 0 372.224062 
L 551.585938 372.224062 
L 551.585938 0 
L 0 0 
z
" style="fill: #ffffff"/>
  </g>
  <g id="axes_1">
   <g id="patch_2">
    <path d="M 78.935938 330.94 
L 544.385938 330.94 
L 544.385938 7.2 
L 78.935938 7.2 
z
" style="fill: #ffffff"/>
   </g>
   <g id="matplotlib.axis_1">
    <g id="xtick_1">
     <g id="text_1">
      <!-- Longevity -->
      <g style="fill: #262626" transform="translate(95.846427 359.902969) scale(0.23 -0.23)">
       <defs>
        <path id="ArialMT-4c" d="M 469 0 
L 469 4581 
L 1075 4581 
L 1075 541 
L 3331 541 
L 3331 0 
L 469 0 
z
" transform="scale(0.015625)"/>
        <path id="ArialMT-6f" d="M 213 1659 
Q 213 2581 725 3025 
Q 1153 3394 1769 3394 
Q 2453 3394 2887 2945 
Q 3322 2497 3322 1706 
Q 3322 1066 3130 698 
Q 2938 331 2570 128 
Q 2203 -75 1769 -75 
Q 1072 -75 642 372 
Q 213 819 213 1659 
z
M 791 1659 
Q 791 1022 1069 705 
Q 1347 388 1769 388 
Q 2188 388 2466 706 
Q 2744 1025 2744 1678 
Q 2744 2294 2464 2611 
Q 2184 2928 1769 2928 
Q 1347 2928 1069 2612 
Q 791 2297 791 1659 
z
" transform="scale(0.015625)"/>
        <path id="ArialMT-6e" d="M 422 0 
L 422 3319 
L 928 3319 
L 928 2847 
Q 1294 3394 1984 3394 
Q 2284 3394 2536 3286 
Q 2788 3178 2913 3003 
Q 3038 2828 3088 2588 
Q 3119 2431 3119 2041 
L 3119 0 
L 2556 0 
L 2556 2019 
Q 2556 2363 2490 2533 
Q 2425 2703 2258 2804 
Q 2091 2906 1866 2906 
Q 1506 2906 1245 2678 
Q 984 2450 984 1813 
L 984 0 
L 422 0 
z
" transform="scale(0.015625)"/>
        <path id="ArialMT-67" d="M 319 -275 
L 866 -356 
Q 900 -609 1056 -725 
Q 1266 -881 1628 -881 
Q 2019 -881 2231 -725 
Q 2444 -569 2519 -288 
Q 2563 -116 2559 434 
Q 2191 0 1641 0 
Q 956 0 581 494 
Q 206 988 206 1678 
Q 206 2153 378 2554 
Q 550 2956 876 3175 
Q 1203 3394 1644 3394 
Q 2231 3394 2613 2919 
L 2613 3319 
L 3131 3319 
L 3131 450 
Q 3131 -325 2973 -648 
Q 2816 -972 2473 -1159 
Q 2131 -1347 1631 -1347 
Q 1038 -1347 672 -1080 
Q 306 -813 319 -275 
z
M 784 1719 
Q 784 1066 1043 766 
Q 1303 466 1694 466 
Q 2081 466 2343 764 
Q 2606 1063 2606 1700 
Q 2606 2309 2336 2618 
Q 2066 2928 1684 2928 
Q 1309 2928 1046 2623 
Q 784 2319 784 1719 
z
" transform="scale(0.015625)"/>
        <path id="ArialMT-65" d="M 2694 1069 
L 3275 997 
Q 3138 488 2766 206 
Q 2394 -75 1816 -75 
Q 1088 -75 661 373 
Q 234 822 234 1631 
Q 234 2469 665 2931 
Q 1097 3394 1784 3394 
Q 2450 3394 2872 2941 
Q 3294 2488 3294 1666 
Q 3294 1616 3291 1516 
L 816 1516 
Q 847 969 1125 678 
Q 1403 388 1819 388 
Q 2128 388 2347 550 
Q 2566 713 2694 1069 
z
M 847 1978 
L 2700 1978 
Q 2663 2397 2488 2606 
Q 2219 2931 1791 2931 
Q 1403 2931 1139 2672 
Q 875 2413 847 1978 
z
" transform="scale(0.015625)"/>
        <path id="ArialMT-76" d="M 1344 0 
L 81 3319 
L 675 3319 
L 1388 1331 
Q 1503 1009 1600 663 
Q 1675 925 1809 1294 
L 2547 3319 
L 3125 3319 
L 1869 0 
L 1344 0 
z
" transform="scale(0.015625)"/>
        <path id="ArialMT-69" d="M 425 3934 
L 425 4581 
L 988 4581 
L 988 3934 
L 425 3934 
z
M 425 0 
L 425 3319 
L 988 3319 
L 988 0 
L 425 0 
z
" transform="scale(0.015625)"/>
        <path id="ArialMT-74" d="M 1650 503 
L 1731 6 
Q 1494 -44 1306 -44 
Q 1000 -44 831 53 
Q 663 150 594 308 
Q 525 466 525 972 
L 525 2881 
L 113 2881 
L 113 3319 
L 525 3319 
L 525 4141 
L 1084 4478 
L 1084 3319 
L 1650 3319 
L 1650 2881 
L 1084 2881 
L 1084 941 
Q 1084 700 1114 631 
Q 1144 563 1211 522 
Q 1278 481 1403 481 
Q 1497 481 1650 503 
z
" transform="scale(0.015625)"/>
        <path id="ArialMT-79" d="M 397 -1278 
L 334 -750 
Q 519 -800 656 -800 
Q 844 -800 956 -737 
Q 1069 -675 1141 -563 
Q 1194 -478 1313 -144 
Q 1328 -97 1363 -6 
L 103 3319 
L 709 3319 
L 1400 1397 
Q 1534 1031 1641 628 
Q 1738 1016 1872 1384 
L 2581 3319 
L 3144 3319 
L 1881 -56 
Q 1678 -603 1566 -809 
Q 1416 -1088 1222 -1217 
Q 1028 -1347 759 -1347 
Q 597 -1347 397 -1278 
z
" transform="scale(0.015625)"/>
       </defs>
       <use xlink:href="#ArialMT-4c"/>
       <use xlink:href="#ArialMT-6f" transform="translate(55.615234 0)"/>
       <use xlink:href="#ArialMT-6e" transform="translate(111.230469 0)"/>
       <use xlink:href="#ArialMT-67" transform="translate(166.845703 0)"/>
       <use xlink:href="#ArialMT-65" transform="translate(222.460938 0)"/>
       <use xlink:href="#ArialMT-76" transform="translate(278.076172 0)"/>
       <use xlink:href="#ArialMT-69" transform="translate(328.076172 0)"/>
       <use xlink:href="#ArialMT-74" transform="translate(350.292969 0)"/>
       <use xlink:href="#ArialMT-79" transform="translate(378.076172 0)"/>
      </g>
     </g>
    </g>
    <g id="xtick_2">
     <g id="text_2">
      <!-- Sillage -->
      <g style="fill: #262626" transform="translate(221.609668 360.183281) scale(0.23 -0.23)">
       <defs>
        <path id="ArialMT-53" d="M 288 1472 
L 859 1522 
Q 900 1178 1048 958 
Q 1197 738 1509 602 
Q 1822 466 2213 466 
Q 2559 466 2825 569 
Q 3091 672 3220 851 
Q 3350 1031 3350 1244 
Q 3350 1459 3225 1620 
Q 3100 1781 2813 1891 
Q 2628 1963 1997 2114 
Q 1366 2266 1113 2400 
Q 784 2572 623 2826 
Q 463 3081 463 3397 
Q 463 3744 659 4045 
Q 856 4347 1234 4503 
Q 1613 4659 2075 4659 
Q 2584 4659 2973 4495 
Q 3363 4331 3572 4012 
Q 3781 3694 3797 3291 
L 3216 3247 
Q 3169 3681 2898 3903 
Q 2628 4125 2100 4125 
Q 1550 4125 1298 3923 
Q 1047 3722 1047 3438 
Q 1047 3191 1225 3031 
Q 1400 2872 2139 2705 
Q 2878 2538 3153 2413 
Q 3553 2228 3743 1945 
Q 3934 1663 3934 1294 
Q 3934 928 3725 604 
Q 3516 281 3123 101 
Q 2731 -78 2241 -78 
Q 1619 -78 1198 103 
Q 778 284 539 648 
Q 300 1013 288 1472 
z
" transform="scale(0.015625)"/>
        <path id="ArialMT-6c" d="M 409 0 
L 409 4581 
L 972 4581 
L 972 0 
L 409 0 
z
" transform="scale(0.015625)"/>
        <path id="ArialMT-61" d="M 2588 409 
Q 2275 144 1986 34 
Q 1697 -75 1366 -75 
Q 819 -75 525 192 
Q 231 459 231 875 
Q 231 1119 342 1320 
Q 453 1522 633 1644 
Q 813 1766 1038 1828 
Q 1203 1872 1538 1913 
Q 2219 1994 2541 2106 
Q 2544 2222 2544 2253 
Q 2544 2597 2384 2738 
Q 2169 2928 1744 2928 
Q 1347 2928 1158 2789 
Q 969 2650 878 2297 
L 328 2372 
Q 403 2725 575 2942 
Q 747 3159 1072 3276 
Q 1397 3394 1825 3394 
Q 2250 3394 2515 3294 
Q 2781 3194 2906 3042 
Q 3031 2891 3081 2659 
Q 3109 2516 3109 2141 
L 3109 1391 
Q 3109 606 3145 398 
Q 3181 191 3288 0 
L 2700 0 
Q 2613 175 2588 409 
z
M 2541 1666 
Q 2234 1541 1622 1453 
Q 1275 1403 1131 1340 
Q 988 1278 909 1158 
Q 831 1038 831 891 
Q 831 666 1001 516 
Q 1172 366 1500 366 
Q 1825 366 2078 508 
Q 2331 650 2450 897 
Q 2541 1088 2541 1459 
L 2541 1666 
z
" transform="scale(0.015625)"/>
       </defs>
       <use xlink:href="#ArialMT-53"/>
       <use xlink:href="#ArialMT-69" transform="translate(66.699219 0)"/>
       <use xlink:href="#ArialMT-6c" transform="translate(88.916016 0)"/>
       <use xlink:href="#ArialMT-6c" transform="translate(111.132812 0)"/>
       <use xlink:href="#ArialMT-61" transform="translate(133.349609 0)"/>
       <use xlink:href="#ArialMT-67" transform="translate(188.964844 0)"/>
       <use xlink:href="#ArialMT-65" transform="translate(244.580078 0)"/>
      </g>
     </g>
    </g>
    <g id="xtick_3">
     <g id="text_3">
      <!-- Price value -->
      <g style="fill: #262626" transform="translate(310.305175 359.902969) scale(0.23 -0.23)">
       <defs>
        <path id="ArialMT-50" d="M 494 0 
L 494 4581 
L 2222 4581 
Q 2678 4581 2919 4538 
Q 3256 4481 3484 4323 
Q 3713 4166 3852 3881 
Q 3991 3597 3991 3256 
Q 3991 2672 3619 2267 
Q 3247 1863 2275 1863 
L 1100 1863 
L 1100 0 
L 494 0 
z
M 1100 2403 
L 2284 2403 
Q 2872 2403 3119 2622 
Q 3366 2841 3366 3238 
Q 3366 3525 3220 3729 
Q 3075 3934 2838 4000 
Q 2684 4041 2272 4041 
L 1100 4041 
L 1100 2403 
z
" transform="scale(0.015625)"/>
        <path id="ArialMT-72" d="M 416 0 
L 416 3319 
L 922 3319 
L 922 2816 
Q 1116 3169 1280 3281 
Q 1444 3394 1641 3394 
Q 1925 3394 2219 3213 
L 2025 2691 
Q 1819 2813 1613 2813 
Q 1428 2813 1281 2702 
Q 1134 2591 1072 2394 
Q 978 2094 978 1738 
L 978 0 
L 416 0 
z
" transform="scale(0.015625)"/>
        <path id="ArialMT-63" d="M 2588 1216 
L 3141 1144 
Q 3050 572 2676 248 
Q 2303 -75 1759 -75 
Q 1078 -75 664 370 
Q 250 816 250 1647 
Q 250 2184 428 2587 
Q 606 2991 970 3192 
Q 1334 3394 1763 3394 
Q 2303 3394 2647 3120 
Q 2991 2847 3088 2344 
L 2541 2259 
Q 2463 2594 2264 2762 
Q 2066 2931 1784 2931 
Q 1359 2931 1093 2626 
Q 828 2322 828 1663 
Q 828 994 1084 691 
Q 1341 388 1753 388 
Q 2084 388 2306 591 
Q 2528 794 2588 1216 
z
" transform="scale(0.015625)"/>
        <path id="ArialMT-20" transform="scale(0.015625)"/>
        <path id="ArialMT-75" d="M 2597 0 
L 2597 488 
Q 2209 -75 1544 -75 
Q 1250 -75 995 37 
Q 741 150 617 320 
Q 494 491 444 738 
Q 409 903 409 1263 
L 409 3319 
L 972 3319 
L 972 1478 
Q 972 1038 1006 884 
Q 1059 663 1231 536 
Q 1403 409 1656 409 
Q 1909 409 2131 539 
Q 2353 669 2445 892 
Q 2538 1116 2538 1541 
L 2538 3319 
L 3100 3319 
L 3100 0 
L 2597 0 
z
" transform="scale(0.015625)"/>
       </defs>
       <use xlink:href="#ArialMT-50"/>
       <use xlink:href="#ArialMT-72" transform="translate(66.699219 0)"/>
       <use xlink:href="#ArialMT-69" transform="translate(100 0)"/>
       <use xlink:href="#ArialMT-63" transform="translate(122.216797 0)"/>
       <use xlink:href="#ArialMT-65" transform="translate(172.216797 0)"/>
       <use xlink:href="#ArialMT-20" transform="translate(227.832031 0)"/>
       <use xlink:href="#ArialMT-76" transform="translate(255.615234 0)"/>
       <use xlink:href="#ArialMT-61" transform="translate(305.615234 0)"/>
       <use xlink:href="#ArialMT-6c" transform="translate(361.230469 0)"/>
       <use xlink:href="#ArialMT-75" transform="translate(383.447266 0)"/>
       <use xlink:href="#ArialMT-65" transform="translate(439.0625 0)"/>
      </g>
     </g>
    </g>
    <g id="xtick_4">
     <g id="text_4">
      <!-- Rating -->
      <g style="fill: #262626" transform="translate(445.009666 359.902969) scale(0.23 -0.23)">
       <defs>
        <path id="ArialMT-52" d="M 503 0 
L 503 4581 
L 2534 4581 
Q 3147 4581 3465 4457 
Q 3784 4334 3975 4021 
Q 4166 3709 4166 3331 
Q 4166 2844 3850 2509 
Q 3534 2175 2875 2084 
Q 3116 1969 3241 1856 
Q 3506 1613 3744 1247 
L 4541 0 
L 3778 0 
L 3172 953 
Q 2906 1366 2734 1584 
Q 2563 1803 2427 1890 
Q 2291 1978 2150 2013 
Q 2047 2034 1813 2034 
L 1109 2034 
L 1109 0 
L 503 0 
z
M 1109 2559 
L 2413 2559 
Q 2828 2559 3062 2645 
Q 3297 2731 3419 2920 
Q 3541 3109 3541 3331 
Q 3541 3656 3305 3865 
Q 3069 4075 2559 4075 
L 1109 4075 
L 1109 2559 
z
" transform="scale(0.015625)"/>
       </defs>
       <use xlink:href="#ArialMT-52"/>
       <use xlink:href="#ArialMT-61" transform="translate(72.216797 0)"/>
       <use xlink:href="#ArialMT-74" transform="translate(127.832031 0)"/>
       <use xlink:href="#ArialMT-69" transform="translate(155.615234 0)"/>
       <use xlink:href="#ArialMT-6e" transform="translate(177.832031 0)"/>
       <use xlink:href="#ArialMT-67" transform="translate(233.447266 0)"/>
      </g>
     </g>
    </g>
   </g>
   <g id="matplotlib.axis_2">
    <g id="ytick_1">
     <g id="text_5">
      <!-- 2.5 -->
      <g style="fill: #262626" transform="translate(38.635938 336.605222) scale(0.2 -0.2)">
       <defs>
        <path id="ArialMT-32" d="M 3222 541 
L 3222 0 
L 194 0 
Q 188 203 259 391 
Q 375 700 629 1000 
Q 884 1300 1366 1694 
Q 2113 2306 2375 2664 
Q 2638 3022 2638 3341 
Q 2638 3675 2398 3904 
Q 2159 4134 1775 4134 
Q 1369 4134 1125 3890 
Q 881 3647 878 3216 
L 300 3275 
Q 359 3922 746 4261 
Q 1134 4600 1788 4600 
Q 2447 4600 2831 4234 
Q 3216 3869 3216 3328 
Q 3216 3053 3103 2787 
Q 2991 2522 2730 2228 
Q 2469 1934 1863 1422 
Q 1356 997 1212 845 
Q 1069 694 975 541 
L 3222 541 
z
" transform="scale(0.015625)"/>
        <path id="ArialMT-2e" d="M 581 0 
L 581 641 
L 1222 641 
L 1222 0 
L 581 0 
z
" transform="scale(0.015625)"/>
        <path id="ArialMT-35" d="M 266 1200 
L 856 1250 
Q 922 819 1161 601 
Q 1400 384 1738 384 
Q 2144 384 2425 690 
Q 2706 997 2706 1503 
Q 2706 1984 2436 2262 
Q 2166 2541 1728 2541 
Q 1456 2541 1237 2417 
Q 1019 2294 894 2097 
L 366 2166 
L 809 4519 
L 3088 4519 
L 3088 3981 
L 1259 3981 
L 1013 2750 
Q 1425 3038 1878 3038 
Q 2478 3038 2890 2622 
Q 3303 2206 3303 1553 
Q 3303 931 2941 478 
Q 2500 -78 1738 -78 
Q 1113 -78 717 272 
Q 322 622 266 1200 
z
" transform="scale(0.015625)"/>
       </defs>
       <use xlink:href="#ArialMT-32"/>
       <use xlink:href="#ArialMT-2e" transform="translate(55.615234 0)"/>
       <use xlink:href="#ArialMT-35" transform="translate(83.398438 0)"/>
      </g>
     </g>
    </g>
    <g id="ytick_2">
     <g id="text_6">
      <!-- 3.0 -->
      <g style="fill: #262626" transform="translate(38.635938 268.738799) scale(0.2 -0.2)">
       <defs>
        <path id="ArialMT-33" d="M 269 1209 
L 831 1284 
Q 928 806 1161 595 
Q 1394 384 1728 384 
Q 2125 384 2398 659 
Q 2672 934 2672 1341 
Q 2672 1728 2419 1979 
Q 2166 2231 1775 2231 
Q 1616 2231 1378 2169 
L 1441 2663 
Q 1497 2656 1531 2656 
Q 1891 2656 2178 2843 
Q 2466 3031 2466 3422 
Q 2466 3731 2256 3934 
Q 2047 4138 1716 4138 
Q 1388 4138 1169 3931 
Q 950 3725 888 3313 
L 325 3413 
Q 428 3978 793 4289 
Q 1159 4600 1703 4600 
Q 2078 4600 2393 4439 
Q 2709 4278 2876 4000 
Q 3044 3722 3044 3409 
Q 3044 3113 2884 2869 
Q 2725 2625 2413 2481 
Q 2819 2388 3044 2092 
Q 3269 1797 3269 1353 
Q 3269 753 2831 336 
Q 2394 -81 1725 -81 
Q 1122 -81 723 278 
Q 325 638 269 1209 
z
" transform="scale(0.015625)"/>
        <path id="ArialMT-30" d="M 266 2259 
Q 266 3072 433 3567 
Q 600 4063 929 4331 
Q 1259 4600 1759 4600 
Q 2128 4600 2406 4451 
Q 2684 4303 2865 4023 
Q 3047 3744 3150 3342 
Q 3253 2941 3253 2259 
Q 3253 1453 3087 958 
Q 2922 463 2592 192 
Q 2263 -78 1759 -78 
Q 1097 -78 719 397 
Q 266 969 266 2259 
z
M 844 2259 
Q 844 1131 1108 757 
Q 1372 384 1759 384 
Q 2147 384 2411 759 
Q 2675 1134 2675 2259 
Q 2675 3391 2411 3762 
Q 2147 4134 1753 4134 
Q 1366 4134 1134 3806 
Q 844 3388 844 2259 
z
" transform="scale(0.015625)"/>
       </defs>
       <use xlink:href="#ArialMT-33"/>
       <use xlink:href="#ArialMT-2e" transform="translate(55.615234 0)"/>
       <use xlink:href="#ArialMT-30" transform="translate(83.398438 0)"/>
      </g>
     </g>
    </g>
    <g id="ytick_3">
     <g id="text_7">
      <!-- 3.5 -->
      <g style="fill: #262626" transform="translate(38.635938 200.872375) scale(0.2 -0.2)">
       <use xlink:href="#ArialMT-33"/>
       <use xlink:href="#ArialMT-2e" transform="translate(55.615234 0)"/>
       <use xlink:href="#ArialMT-35" transform="translate(83.398438 0)"/>
      </g>
     </g>
    </g>
    <g id="ytick_4">
     <g id="text_8">
      <!-- 4.0 -->
      <g style="fill: #262626" transform="translate(38.635938 133.005952) scale(0.2 -0.2)">
       <defs>
        <path id="ArialMT-34" d="M 2069 0 
L 2069 1097 
L 81 1097 
L 81 1613 
L 2172 4581 
L 2631 4581 
L 2631 1613 
L 3250 1613 
L 3250 1097 
L 2631 1097 
L 2631 0 
L 2069 0 
z
M 2069 1613 
L 2069 3678 
L 634 1613 
L 2069 1613 
z
" transform="scale(0.015625)"/>
       </defs>
       <use xlink:href="#ArialMT-34"/>
       <use xlink:href="#ArialMT-2e" transform="translate(55.615234 0)"/>
       <use xlink:href="#ArialMT-30" transform="translate(83.398438 0)"/>
      </g>
     </g>
    </g>
    <g id="ytick_5">
     <g id="text_9">
      <!-- 4.5 -->
      <g style="fill: #262626" transform="translate(38.635938 65.139529) scale(0.2 -0.2)">
       <use xlink:href="#ArialMT-34"/>
       <use xlink:href="#ArialMT-2e" transform="translate(55.615234 0)"/>
       <use xlink:href="#ArialMT-35" transform="translate(83.398438 0)"/>
      </g>
     </g>
    </g>
    <g id="text_10">
     <!-- Perfume Characteristics -->
     <g style="fill: #262626" transform="translate(28.673438 329.110625) rotate(-90) scale(0.3 -0.3)">
      <defs>
       <path id="ArialMT-66" d="M 556 0 
L 556 2881 
L 59 2881 
L 59 3319 
L 556 3319 
L 556 3672 
Q 556 4006 616 4169 
Q 697 4388 901 4523 
Q 1106 4659 1475 4659 
Q 1713 4659 2000 4603 
L 1916 4113 
Q 1741 4144 1584 4144 
Q 1328 4144 1222 4034 
Q 1116 3925 1116 3625 
L 1116 3319 
L 1763 3319 
L 1763 2881 
L 1116 2881 
L 1116 0 
L 556 0 
z
" transform="scale(0.015625)"/>
       <path id="ArialMT-6d" d="M 422 0 
L 422 3319 
L 925 3319 
L 925 2853 
Q 1081 3097 1340 3245 
Q 1600 3394 1931 3394 
Q 2300 3394 2536 3241 
Q 2772 3088 2869 2813 
Q 3263 3394 3894 3394 
Q 4388 3394 4653 3120 
Q 4919 2847 4919 2278 
L 4919 0 
L 4359 0 
L 4359 2091 
Q 4359 2428 4304 2576 
Q 4250 2725 4106 2815 
Q 3963 2906 3769 2906 
Q 3419 2906 3187 2673 
Q 2956 2441 2956 1928 
L 2956 0 
L 2394 0 
L 2394 2156 
Q 2394 2531 2256 2718 
Q 2119 2906 1806 2906 
Q 1569 2906 1367 2781 
Q 1166 2656 1075 2415 
Q 984 2175 984 1722 
L 984 0 
L 422 0 
z
" transform="scale(0.015625)"/>
       <path id="ArialMT-43" d="M 3763 1606 
L 4369 1453 
Q 4178 706 3683 314 
Q 3188 -78 2472 -78 
Q 1731 -78 1267 223 
Q 803 525 561 1097 
Q 319 1669 319 2325 
Q 319 3041 592 3573 
Q 866 4106 1370 4382 
Q 1875 4659 2481 4659 
Q 3169 4659 3637 4309 
Q 4106 3959 4291 3325 
L 3694 3184 
Q 3534 3684 3231 3912 
Q 2928 4141 2469 4141 
Q 1941 4141 1586 3887 
Q 1231 3634 1087 3207 
Q 944 2781 944 2328 
Q 944 1744 1114 1308 
Q 1284 872 1643 656 
Q 2003 441 2422 441 
Q 2931 441 3284 734 
Q 3638 1028 3763 1606 
z
" transform="scale(0.015625)"/>
       <path id="ArialMT-68" d="M 422 0 
L 422 4581 
L 984 4581 
L 984 2938 
Q 1378 3394 1978 3394 
Q 2347 3394 2619 3248 
Q 2891 3103 3008 2847 
Q 3125 2591 3125 2103 
L 3125 0 
L 2563 0 
L 2563 2103 
Q 2563 2525 2380 2717 
Q 2197 2909 1863 2909 
Q 1613 2909 1392 2779 
Q 1172 2650 1078 2428 
Q 984 2206 984 1816 
L 984 0 
L 422 0 
z
" transform="scale(0.015625)"/>
       <path id="ArialMT-73" d="M 197 991 
L 753 1078 
Q 800 744 1014 566 
Q 1228 388 1613 388 
Q 2000 388 2187 545 
Q 2375 703 2375 916 
Q 2375 1106 2209 1216 
Q 2094 1291 1634 1406 
Q 1016 1563 777 1677 
Q 538 1791 414 1992 
Q 291 2194 291 2438 
Q 291 2659 392 2848 
Q 494 3038 669 3163 
Q 800 3259 1026 3326 
Q 1253 3394 1513 3394 
Q 1903 3394 2198 3281 
Q 2494 3169 2634 2976 
Q 2775 2784 2828 2463 
L 2278 2388 
Q 2241 2644 2061 2787 
Q 1881 2931 1553 2931 
Q 1166 2931 1000 2803 
Q 834 2675 834 2503 
Q 834 2394 903 2306 
Q 972 2216 1119 2156 
Q 1203 2125 1616 2013 
Q 2213 1853 2448 1751 
Q 2684 1650 2818 1456 
Q 2953 1263 2953 975 
Q 2953 694 2789 445 
Q 2625 197 2315 61 
Q 2006 -75 1616 -75 
Q 969 -75 630 194 
Q 291 463 197 991 
z
" transform="scale(0.015625)"/>
      </defs>
      <use xlink:href="#ArialMT-50"/>
      <use xlink:href="#ArialMT-65" transform="translate(66.699219 0)"/>
      <use xlink:href="#ArialMT-72" transform="translate(122.314453 0)"/>
      <use xlink:href="#ArialMT-66" transform="translate(155.615234 0)"/>
      <use xlink:href="#ArialMT-75" transform="translate(183.398438 0)"/>
      <use xlink:href="#ArialMT-6d" transform="translate(239.013672 0)"/>
      <use xlink:href="#ArialMT-65" transform="translate(322.314453 0)"/>
      <use xlink:href="#ArialMT-20" transform="translate(377.929688 0)"/>
      <use xlink:href="#ArialMT-43" transform="translate(405.712891 0)"/>
      <use xlink:href="#ArialMT-68" transform="translate(477.929688 0)"/>
      <use xlink:href="#ArialMT-61" transform="translate(533.544922 0)"/>
      <use xlink:href="#ArialMT-72" transform="translate(589.160156 0)"/>
      <use xlink:href="#ArialMT-61" transform="translate(622.460938 0)"/>
      <use xlink:href="#ArialMT-63" transform="translate(678.076172 0)"/>
      <use xlink:href="#ArialMT-74" transform="translate(728.076172 0)"/>
      <use xlink:href="#ArialMT-65" transform="translate(755.859375 0)"/>
      <use xlink:href="#ArialMT-72" transform="translate(811.474609 0)"/>
      <use xlink:href="#ArialMT-69" transform="translate(844.775391 0)"/>
      <use xlink:href="#ArialMT-73" transform="translate(866.992188 0)"/>
      <use xlink:href="#ArialMT-74" transform="translate(916.992188 0)"/>
      <use xlink:href="#ArialMT-69" transform="translate(944.775391 0)"/>
      <use xlink:href="#ArialMT-63" transform="translate(966.992188 0)"/>
      <use xlink:href="#ArialMT-73" transform="translate(1016.992188 0)"/>
     </g>
    </g>
   </g>
   <g id="patch_3">
    <path d="M 100.092756 668.779525 
L 130.078797 668.779525 
L 130.078797 200.88496 
L 100.092756 200.88496 
z
" clip-path="url(#p8bad20aa92)" style="fill: #b2182b; stroke: #000000; stroke-linejoin: miter"/>
   </g>
   <g id="patch_4">
    <path d="M 211.152169 668.779525 
L 241.13821 668.779525 
L 241.13821 248.285738 
L 211.152169 248.285738 
z
" clip-path="url(#p8bad20aa92)" style="fill: #b2182b; stroke: #000000; stroke-linejoin: miter"/>
   </g>
   <g id="patch_5">
    <path d="M 322.211582 668.779525 
L 352.197623 668.779525 
L 352.197623 248.989151 
L 322.211582 248.989151 
z
" clip-path="url(#p8bad20aa92)" style="fill: #b2182b; stroke: #000000; stroke-linejoin: miter"/>
   </g>
   <g id="patch_6">
    <path d="M 433.270995 668.779525 
L 463.257036 668.779525 
L 463.257036 119.237346 
L 433.270995 119.237346 
z
" clip-path="url(#p8bad20aa92)" style="fill: #b2182b; stroke: #000000; stroke-linejoin: miter"/>
   </g>
   <g id="patch_7">
    <path d="M 130.078797 668.779525 
L 160.064839 668.779525 
L 160.064839 220.57349 
L 130.078797 220.57349 
z
" clip-path="url(#p8bad20aa92)" style="fill: #ef8a62; stroke: #000000; stroke-linejoin: miter"/>
   </g>
   <g id="patch_8">
    <path d="M 241.13821 668.779525 
L 271.124252 668.779525 
L 271.124252 259.862023 
L 241.13821 259.862023 
z
" clip-path="url(#p8bad20aa92)" style="fill: #ef8a62; stroke: #000000; stroke-linejoin: miter"/>
   </g>
   <g id="patch_9">
    <path d="M 352.197623 668.779525 
L 382.183665 668.779525 
L 382.183665 254.746079 
L 352.197623 254.746079 
z
" clip-path="url(#p8bad20aa92)" style="fill: #ef8a62; stroke: #000000; stroke-linejoin: miter"/>
   </g>
   <g id="patch_10">
    <path d="M 463.257036 668.779525 
L 493.243078 668.779525 
L 493.243078 119.8009 
L 463.257036 119.8009 
z
" clip-path="url(#p8bad20aa92)" style="fill: #ef8a62; stroke: #000000; stroke-linejoin: miter"/>
   </g>
   <g id="patch_11">
    <path d="M 160.064839 668.779525 
L 190.05088 668.779525 
L 190.05088 226.530436 
L 160.064839 226.530436 
z
" clip-path="url(#p8bad20aa92)" style="fill: #9aa7b1; stroke: #000000; stroke-linejoin: miter"/>
   </g>
   <g id="patch_12">
    <path d="M 271.124252 668.779525 
L 301.110293 668.779525 
L 301.110293 268.89595 
L 271.124252 268.89595 
z
" clip-path="url(#p8bad20aa92)" style="fill: #9aa7b1; stroke: #000000; stroke-linejoin: miter"/>
   </g>
   <g id="patch_13">
    <path d="M 382.183665 668.779525 
L 412.169706 668.779525 
L 412.169706 236.45608 
L 382.183665 236.45608 
z
" clip-path="url(#p8bad20aa92)" style="fill: #9aa7b1; stroke: #000000; stroke-linejoin: miter"/>
   </g>
   <g id="patch_14">
    <path d="M 493.243078 668.779525 
L 523.229119 668.779525 
L 523.229119 131.147506 
L 493.243078 131.147506 
z
" clip-path="url(#p8bad20aa92)" style="fill: #9aa7b1; stroke: #000000; stroke-linejoin: miter"/>
   </g>
   <g id="LineCollection_1">
    <path d="M 115.085776 211.507922 
L 115.085776 190.261998 
" clip-path="url(#p8bad20aa92)" style="fill: none; stroke: #1a1a1a; stroke-width: 1.3"/>
    <path d="M 226.145189 257.903923 
L 226.145189 238.667552 
" clip-path="url(#p8bad20aa92)" style="fill: none; stroke: #1a1a1a; stroke-width: 1.3"/>
    <path d="M 337.204602 264.204109 
L 337.204602 233.774194 
" clip-path="url(#p8bad20aa92)" style="fill: none; stroke: #1a1a1a; stroke-width: 1.3"/>
    <path d="M 448.264016 125.403071 
L 448.264016 113.07162 
" clip-path="url(#p8bad20aa92)" style="fill: none; stroke: #1a1a1a; stroke-width: 1.3"/>
   </g>
   <g id="line2d_1">
    <defs>
     <path id="md87ebeb0fe" d="M 5 0 
L -5 -0 
" style="stroke: #1a1a1a"/>
    </defs>
    <g clip-path="url(#p8bad20aa92)">
     <use xlink:href="#md87ebeb0fe" x="115.085776" y="211.507922" style="fill: #1a1a1a; stroke: #1a1a1a"/>
     <use xlink:href="#md87ebeb0fe" x="226.145189" y="257.903923" style="fill: #1a1a1a; stroke: #1a1a1a"/>
     <use xlink:href="#md87ebeb0fe" x="337.204602" y="264.204109" style="fill: #1a1a1a; stroke: #1a1a1a"/>
     <use xlink:href="#md87ebeb0fe" x="448.264016" y="125.403071" style="fill: #1a1a1a; stroke: #1a1a1a"/>
    </g>
   </g>
   <g id="line2d_2">
    <g clip-path="url(#p8bad20aa92)">
     <use xlink:href="#md87ebeb0fe" x="115.085776" y="190.261998" style="fill: #1a1a1a; stroke: #1a1a1a"/>
     <use xlink:href="#md87ebeb0fe" x="226.145189" y="238.667552" style="fill: #1a1a1a; stroke: #1a1a1a"/>
     <use xlink:href="#md87ebeb0fe" x="337.204602" y="233.774194" style="fill: #1a1a1a; stroke: #1a1a1a"/>
     <use xlink:href="#md87ebeb0fe" x="448.264016" y="113.07162" style="fill: #1a1a1a; stroke: #1a1a1a"/>
    </g>
   </g>
   <g id="LineCollection_2">
    <path d="M 145.071818 223.149929 
L 145.071818 217.997051 
" clip-path="url(#p8bad20aa92)" style="fill: none; stroke: #1a1a1a; stroke-width: 1.3"/>
    <path d="M 256.131231 262.157103 
L 256.131231 257.566944 
" clip-path="url(#p8bad20aa92)" style="fill: none; stroke: #1a1a1a; stroke-width: 1.3"/>
    <path d="M 367.190644 257.926299 
L 367.190644 251.565858 
" clip-path="url(#p8bad20aa92)" style="fill: none; stroke: #1a1a1a; stroke-width: 1.3"/>
    <path d="M 478.250057 121.166624 
L 478.250057 118.435176 
" clip-path="url(#p8bad20aa92)" style="fill: none; stroke: #1a1a1a; stroke-width: 1.3"/>
   </g>
   <g id="line2d_3">
    <g clip-path="url(#p8bad20aa92)">
     <use xlink:href="#md87ebeb0fe" x="145.071818" y="223.149929" style="fill: #1a1a1a; stroke: #1a1a1a"/>
     <use xlink:href="#md87ebeb0fe" x="256.131231" y="262.157103" style="fill: #1a1a1a; stroke: #1a1a1a"/>
     <use xlink:href="#md87ebeb0fe" x="367.190644" y="257.926299" style="fill: #1a1a1a; stroke: #1a1a1a"/>
     <use xlink:href="#md87ebeb0fe" x="478.250057" y="121.166624" style="fill: #1a1a1a; stroke: #1a1a1a"/>
    </g>
   </g>
   <g id="line2d_4">
    <g clip-path="url(#p8bad20aa92)">
     <use xlink:href="#md87ebeb0fe" x="145.071818" y="217.997051" style="fill: #1a1a1a; stroke: #1a1a1a"/>
     <use xlink:href="#md87ebeb0fe" x="256.131231" y="257.566944" style="fill: #1a1a1a; stroke: #1a1a1a"/>
     <use xlink:href="#md87ebeb0fe" x="367.190644" y="251.565858" style="fill: #1a1a1a; stroke: #1a1a1a"/>
     <use xlink:href="#md87ebeb0fe" x="478.250057" y="118.435176" style="fill: #1a1a1a; stroke: #1a1a1a"/>
    </g>
   </g>
   <g id="LineCollection_3">
    <path d="M 175.057859 227.640056 
L 175.057859 225.420816 
" clip-path="url(#p8bad20aa92)" style="fill: none; stroke: #1a1a1a; stroke-width: 1.3"/>
    <path d="M 286.117273 269.860219 
L 286.117273 267.931682 
" clip-path="url(#p8bad20aa92)" style="fill: none; stroke: #1a1a1a; stroke-width: 1.3"/>
    <path d="M 397.176686 238.063478 
L 397.176686 234.848683 
" clip-path="url(#p8bad20aa92)" style="fill: none; stroke: #1a1a1a; stroke-width: 1.3"/>
    <path d="M 508.236099 131.737079 
L 508.236099 130.557933 
" clip-path="url(#p8bad20aa92)" style="fill: none; stroke: #1a1a1a; stroke-width: 1.3"/>
   </g>
   <g id="line2d_5">
    <g clip-path="url(#p8bad20aa92)">
     <use xlink:href="#md87ebeb0fe" x="175.057859" y="227.640056" style="fill: #1a1a1a; stroke: #1a1a1a"/>
     <use xlink:href="#md87ebeb0fe" x="286.117273" y="269.860219" style="fill: #1a1a1a; stroke: #1a1a1a"/>
     <use xlink:href="#md87ebeb0fe" x="397.176686" y="238.063478" style="fill: #1a1a1a; stroke: #1a1a1a"/>
     <use xlink:href="#md87ebeb0fe" x="508.236099" y="131.737079" style="fill: #1a1a1a; stroke: #1a1a1a"/>
    </g>
   </g>
   <g id="line2d_6">
    <g clip-path="url(#p8bad20aa92)">
     <use xlink:href="#md87ebeb0fe" x="175.057859" y="225.420816" style="fill: #1a1a1a; stroke: #1a1a1a"/>
     <use xlink:href="#md87ebeb0fe" x="286.117273" y="267.931682" style="fill: #1a1a1a; stroke: #1a1a1a"/>
     <use xlink:href="#md87ebeb0fe" x="397.176686" y="234.848683" style="fill: #1a1a1a; stroke: #1a1a1a"/>
     <use xlink:href="#md87ebeb0fe" x="508.236099" y="130.557933" style="fill: #1a1a1a; stroke: #1a1a1a"/>
    </g>
   </g>
   <g id="line2d_7">
    <path d="M 145.071818 173.974057 
L 145.071818 169.902071 
L 175.057859 169.902071 
L 175.057859 173.974057 
" clip-path="url(#p8bad20aa92)" style="fill: none; stroke: #000000; stroke-width: 1.1; stroke-linecap: round"/>
   </g>
   <g id="line2d_8">
    <path d="M 115.085776 144.11283 
L 115.085776 140.040845 
L 175.057859 140.040845 
L 175.057859 144.11283 
" clip-path="url(#p8bad20aa92)" style="fill: none; stroke: #000000; stroke-width: 1.1; stroke-linecap: round"/>
   </g>
   <g id="line2d_9">
    <path d="M 256.131231 222.37961 
L 256.131231 218.307625 
L 286.117273 218.307625 
L 286.117273 222.37961 
" clip-path="url(#p8bad20aa92)" style="fill: none; stroke: #000000; stroke-width: 1.1; stroke-linecap: round"/>
   </g>
   <g id="line2d_10">
    <path d="M 226.145189 192.518384 
L 226.145189 188.446399 
L 286.117273 188.446399 
L 286.117273 192.518384 
" clip-path="url(#p8bad20aa92)" style="fill: none; stroke: #000000; stroke-width: 1.1; stroke-linecap: round"/>
   </g>
   <g id="line2d_11">
    <path d="M 367.190644 217.486252 
L 367.190644 213.414267 
L 397.176686 213.414267 
L 397.176686 217.486252 
" clip-path="url(#p8bad20aa92)" style="fill: none; stroke: #000000; stroke-width: 1.1; stroke-linecap: round"/>
   </g>
   <g id="line2d_12">
    <path d="M 337.204602 187.625026 
L 337.204602 183.553041 
L 397.176686 183.553041 
L 397.176686 187.625026 
" clip-path="url(#p8bad20aa92)" style="fill: none; stroke: #000000; stroke-width: 1.1; stroke-linecap: round"/>
   </g>
   <g id="line2d_13">
    <path d="M 478.250057 96.783679 
L 478.250057 92.711693 
L 508.236099 92.711693 
L 508.236099 96.783679 
" clip-path="url(#p8bad20aa92)" style="fill: none; stroke: #000000; stroke-width: 1.1; stroke-linecap: round"/>
   </g>
   <g id="line2d_14">
    <path d="M 448.264016 66.922452 
L 448.264016 62.850467 
L 508.236099 62.850467 
L 508.236099 66.922452 
" clip-path="url(#p8bad20aa92)" style="fill: none; stroke: #000000; stroke-width: 1.1; stroke-linecap: round"/>
   </g>
   <g id="patch_15">
    <path d="M 78.935938 330.94 
L 78.935938 7.2 
" style="fill: none; stroke: #000000; stroke-width: 1.2; stroke-linejoin: miter; stroke-linecap: square"/>
   </g>
   <g id="patch_16">
    <path d="M 544.385938 330.94 
L 544.385938 7.2 
" style="fill: none; stroke: #000000; stroke-width: 1.2; stroke-linejoin: miter; stroke-linecap: square"/>
   </g>
   <g id="patch_17">
    <path d="M 78.935938 330.94 
L 544.385938 330.94 
" style="fill: none; stroke: #000000; stroke-width: 1.2; stroke-linejoin: miter; stroke-linecap: square"/>
   </g>
   <g id="patch_18">
    <path d="M 78.935938 7.2 
L 544.385938 7.2 
" style="fill: none; stroke: #000000; stroke-width: 1.2; stroke-linejoin: miter; stroke-linecap: square"/>
   </g>
   <g id="text_11">
    <!-- 3.45 -->
    <g style="fill: #b2182b" transform="translate(106.328355 185.771247) scale(0.09 -0.09)">
     <defs>
      <path id="Arial-BoldMT-33" d="M 241 1216 
L 1091 1319 
Q 1131 994 1309 822 
Q 1488 650 1741 650 
Q 2013 650 2198 856 
Q 2384 1063 2384 1413 
Q 2384 1744 2206 1937 
Q 2028 2131 1772 2131 
Q 1603 2131 1369 2066 
L 1466 2781 
Q 1822 2772 2009 2936 
Q 2197 3100 2197 3372 
Q 2197 3603 2059 3740 
Q 1922 3878 1694 3878 
Q 1469 3878 1309 3722 
Q 1150 3566 1116 3266 
L 306 3403 
Q 391 3819 561 4067 
Q 731 4316 1036 4458 
Q 1341 4600 1719 4600 
Q 2366 4600 2756 4188 
Q 3078 3850 3078 3425 
Q 3078 2822 2419 2463 
Q 2813 2378 3048 2084 
Q 3284 1791 3284 1375 
Q 3284 772 2843 347 
Q 2403 -78 1747 -78 
Q 1125 -78 715 280 
Q 306 638 241 1216 
z
" transform="scale(0.015625)"/>
      <path id="Arial-BoldMT-2e" d="M 459 0 
L 459 878 
L 1338 878 
L 1338 0 
L 459 0 
z
" transform="scale(0.015625)"/>
      <path id="Arial-BoldMT-34" d="M 1994 0 
L 1994 922 
L 119 922 
L 119 1691 
L 2106 4600 
L 2844 4600 
L 2844 1694 
L 3413 1694 
L 3413 922 
L 2844 922 
L 2844 0 
L 1994 0 
z
M 1994 1694 
L 1994 3259 
L 941 1694 
L 1994 1694 
z
" transform="scale(0.015625)"/>
      <path id="Arial-BoldMT-35" d="M 284 1178 
L 1159 1269 
Q 1197 972 1381 798 
Q 1566 625 1806 625 
Q 2081 625 2272 848 
Q 2463 1072 2463 1522 
Q 2463 1944 2273 2155 
Q 2084 2366 1781 2366 
Q 1403 2366 1103 2031 
L 391 2134 
L 841 4519 
L 3163 4519 
L 3163 3697 
L 1506 3697 
L 1369 2919 
Q 1663 3066 1969 3066 
Q 2553 3066 2959 2641 
Q 3366 2216 3366 1538 
Q 3366 972 3038 528 
Q 2591 -78 1797 -78 
Q 1163 -78 763 262 
Q 363 603 284 1178 
z
" transform="scale(0.015625)"/>
     </defs>
     <use xlink:href="#Arial-BoldMT-33"/>
     <use xlink:href="#Arial-BoldMT-2e" transform="translate(55.615234 0)"/>
     <use xlink:href="#Arial-BoldMT-34" transform="translate(83.398438 0)"/>
     <use xlink:href="#Arial-BoldMT-35" transform="translate(139.013672 0)"/>
    </g>
   </g>
   <g id="text_12">
    <!-- 3.10 -->
    <g style="fill: #b2182b" transform="translate(217.387768 234.176801) scale(0.09 -0.09)">
     <defs>
      <path id="Arial-BoldMT-31" d="M 2519 0 
L 1641 0 
L 1641 3309 
Q 1159 2859 506 2644 
L 506 3441 
Q 850 3553 1253 3867 
Q 1656 4181 1806 4600 
L 2519 4600 
L 2519 0 
z
" transform="scale(0.015625)"/>
      <path id="Arial-BoldMT-30" d="M 1756 4600 
Q 2422 4600 2797 4125 
Q 3244 3563 3244 2259 
Q 3244 959 2794 391 
Q 2422 -78 1756 -78 
Q 1088 -78 678 436 
Q 269 950 269 2269 
Q 269 3563 719 4131 
Q 1091 4600 1756 4600 
z
M 1756 3872 
Q 1597 3872 1472 3770 
Q 1347 3669 1278 3406 
Q 1188 3066 1188 2259 
Q 1188 1453 1269 1151 
Q 1350 850 1473 750 
Q 1597 650 1756 650 
Q 1916 650 2041 751 
Q 2166 853 2234 1116 
Q 2325 1453 2325 2259 
Q 2325 3066 2244 3367 
Q 2163 3669 2039 3770 
Q 1916 3872 1756 3872 
z
" transform="scale(0.015625)"/>
     </defs>
     <use xlink:href="#Arial-BoldMT-33"/>
     <use xlink:href="#Arial-BoldMT-2e" transform="translate(55.615234 0)"/>
     <use xlink:href="#Arial-BoldMT-31" transform="translate(83.398438 0)"/>
     <use xlink:href="#Arial-BoldMT-30" transform="translate(139.013672 0)"/>
    </g>
   </g>
   <g id="text_13">
    <!-- 3.09 -->
    <g style="fill: #b2182b" transform="translate(328.447181 229.283443) scale(0.09 -0.09)">
     <defs>
      <path id="Arial-BoldMT-39" d="M 291 1059 
L 1141 1153 
Q 1172 894 1303 769 
Q 1434 644 1650 644 
Q 1922 644 2112 894 
Q 2303 1144 2356 1931 
Q 2025 1547 1528 1547 
Q 988 1547 595 1964 
Q 203 2381 203 3050 
Q 203 3747 617 4173 
Q 1031 4600 1672 4600 
Q 2369 4600 2816 4061 
Q 3263 3522 3263 2288 
Q 3263 1031 2797 475 
Q 2331 -81 1584 -81 
Q 1047 -81 715 205 
Q 384 491 291 1059 
z
M 2278 2978 
Q 2278 3403 2083 3637 
Q 1888 3872 1631 3872 
Q 1388 3872 1227 3680 
Q 1066 3488 1066 3050 
Q 1066 2606 1241 2398 
Q 1416 2191 1678 2191 
Q 1931 2191 2104 2391 
Q 2278 2591 2278 2978 
z
" transform="scale(0.015625)"/>
     </defs>
     <use xlink:href="#Arial-BoldMT-33"/>
     <use xlink:href="#Arial-BoldMT-2e" transform="translate(55.615234 0)"/>
     <use xlink:href="#Arial-BoldMT-30" transform="translate(83.398438 0)"/>
     <use xlink:href="#Arial-BoldMT-39" transform="translate(139.013672 0)"/>
    </g>
   </g>
   <g id="text_14">
    <!-- 4.05 -->
    <g style="fill: #b2182b" transform="translate(439.506594 108.580869) scale(0.09 -0.09)">
     <use xlink:href="#Arial-BoldMT-34"/>
     <use xlink:href="#Arial-BoldMT-2e" transform="translate(55.615234 0)"/>
     <use xlink:href="#Arial-BoldMT-30" transform="translate(83.398438 0)"/>
     <use xlink:href="#Arial-BoldMT-35" transform="translate(139.013672 0)"/>
    </g>
   </g>
   <g id="text_15">
    <!-- 3.30 -->
    <g style="fill: #c2603a" transform="translate(136.314396 213.506301) scale(0.09 -0.09)">
     <use xlink:href="#Arial-BoldMT-33"/>
     <use xlink:href="#Arial-BoldMT-2e" transform="translate(55.615234 0)"/>
     <use xlink:href="#Arial-BoldMT-33" transform="translate(83.398438 0)"/>
     <use xlink:href="#Arial-BoldMT-30" transform="translate(139.013672 0)"/>
    </g>
   </g>
   <g id="text_16">
    <!-- 3.01 -->
    <g style="fill: #c2603a" transform="translate(247.373809 253.076193) scale(0.09 -0.09)">
     <use xlink:href="#Arial-BoldMT-33"/>
     <use xlink:href="#Arial-BoldMT-2e" transform="translate(55.615234 0)"/>
     <use xlink:href="#Arial-BoldMT-30" transform="translate(83.398438 0)"/>
     <use xlink:href="#Arial-BoldMT-31" transform="translate(139.013672 0)"/>
    </g>
   </g>
   <g id="text_17">
    <!-- 3.05 -->
    <g style="fill: #c2603a" transform="translate(358.433222 247.075108) scale(0.09 -0.09)">
     <use xlink:href="#Arial-BoldMT-33"/>
     <use xlink:href="#Arial-BoldMT-2e" transform="translate(55.615234 0)"/>
     <use xlink:href="#Arial-BoldMT-30" transform="translate(83.398438 0)"/>
     <use xlink:href="#Arial-BoldMT-35" transform="translate(139.013672 0)"/>
    </g>
   </g>
   <g id="text_18">
    <!-- 4.04 -->
    <g style="fill: #c2603a" transform="translate(469.492635 113.944426) scale(0.09 -0.09)">
     <use xlink:href="#Arial-BoldMT-34"/>
     <use xlink:href="#Arial-BoldMT-2e" transform="translate(55.615234 0)"/>
     <use xlink:href="#Arial-BoldMT-30" transform="translate(83.398438 0)"/>
     <use xlink:href="#Arial-BoldMT-34" transform="translate(139.013672 0)"/>
    </g>
   </g>
   <g id="text_19">
    <!-- 3.26 -->
    <g style="fill: #566571" transform="translate(166.300438 220.930066) scale(0.09 -0.09)">
     <defs>
      <path id="Arial-BoldMT-32" d="M 3238 816 
L 3238 0 
L 159 0 
Q 209 463 459 877 
Q 709 1291 1447 1975 
Q 2041 2528 2175 2725 
Q 2356 2997 2356 3263 
Q 2356 3556 2198 3714 
Q 2041 3872 1763 3872 
Q 1488 3872 1325 3706 
Q 1163 3541 1138 3156 
L 263 3244 
Q 341 3969 753 4284 
Q 1166 4600 1784 4600 
Q 2463 4600 2850 4234 
Q 3238 3869 3238 3325 
Q 3238 3016 3127 2736 
Q 3016 2456 2775 2150 
Q 2616 1947 2200 1565 
Q 1784 1184 1673 1059 
Q 1563 934 1494 816 
L 3238 816 
z
" transform="scale(0.015625)"/>
      <path id="Arial-BoldMT-36" d="M 3247 3459 
L 2397 3366 
Q 2366 3628 2234 3753 
Q 2103 3878 1894 3878 
Q 1616 3878 1423 3628 
Q 1231 3378 1181 2588 
Q 1509 2975 1997 2975 
Q 2547 2975 2939 2556 
Q 3331 2138 3331 1475 
Q 3331 772 2918 347 
Q 2506 -78 1859 -78 
Q 1166 -78 719 461 
Q 272 1000 272 2228 
Q 272 3488 737 4044 
Q 1203 4600 1947 4600 
Q 2469 4600 2811 4308 
Q 3153 4016 3247 3459 
z
M 1256 1544 
Q 1256 1116 1453 883 
Q 1650 650 1903 650 
Q 2147 650 2309 840 
Q 2472 1031 2472 1466 
Q 2472 1913 2297 2120 
Q 2122 2328 1859 2328 
Q 1606 2328 1431 2129 
Q 1256 1931 1256 1544 
z
" transform="scale(0.015625)"/>
     </defs>
     <use xlink:href="#Arial-BoldMT-33"/>
     <use xlink:href="#Arial-BoldMT-2e" transform="translate(55.615234 0)"/>
     <use xlink:href="#Arial-BoldMT-32" transform="translate(83.398438 0)"/>
     <use xlink:href="#Arial-BoldMT-36" transform="translate(139.013672 0)"/>
    </g>
   </g>
   <g id="text_20">
    <!-- 2.95 -->
    <g style="fill: #566571" transform="translate(277.359851 263.440931) scale(0.09 -0.09)">
     <use xlink:href="#Arial-BoldMT-32"/>
     <use xlink:href="#Arial-BoldMT-2e" transform="translate(55.615234 0)"/>
     <use xlink:href="#Arial-BoldMT-39" transform="translate(83.398438 0)"/>
     <use xlink:href="#Arial-BoldMT-35" transform="translate(139.013672 0)"/>
    </g>
   </g>
   <g id="text_21">
    <!-- 3.19 -->
    <g style="fill: #566571" transform="translate(388.419264 230.357932) scale(0.09 -0.09)">
     <use xlink:href="#Arial-BoldMT-33"/>
     <use xlink:href="#Arial-BoldMT-2e" transform="translate(55.615234 0)"/>
     <use xlink:href="#Arial-BoldMT-31" transform="translate(83.398438 0)"/>
     <use xlink:href="#Arial-BoldMT-39" transform="translate(139.013672 0)"/>
    </g>
   </g>
   <g id="text_22">
    <!-- 3.96 -->
    <g style="fill: #566571" transform="translate(499.478677 126.067183) scale(0.09 -0.09)">
     <use xlink:href="#Arial-BoldMT-33"/>
     <use xlink:href="#Arial-BoldMT-2e" transform="translate(55.615234 0)"/>
     <use xlink:href="#Arial-BoldMT-39" transform="translate(83.398438 0)"/>
     <use xlink:href="#Arial-BoldMT-36" transform="translate(139.013672 0)"/>
    </g>
   </g>
   <g id="text_23">
    <!-- *** d=+0.10 -->
    <g style="fill: #262626" transform="translate(125.533315 165.182953) scale(0.135 -0.135)">
     <defs>
      <path id="ArialMT-2a" d="M 200 3741 
L 344 4184 
Q 841 4009 1066 3881 
Q 1006 4447 1003 4659 
L 1456 4659 
Q 1447 4350 1384 3884 
Q 1706 4047 2122 4184 
L 2266 3741 
Q 1869 3609 1488 3566 
Q 1678 3400 2025 2975 
L 1650 2709 
Q 1469 2956 1222 3381 
Q 991 2941 816 2709 
L 447 2975 
Q 809 3422 966 3566 
Q 563 3644 200 3741 
z
" transform="scale(0.015625)"/>
      <path id="ArialMT-64" d="M 2575 0 
L 2575 419 
Q 2259 -75 1647 -75 
Q 1250 -75 917 144 
Q 584 363 401 755 
Q 219 1147 219 1656 
Q 219 2153 384 2558 
Q 550 2963 881 3178 
Q 1213 3394 1622 3394 
Q 1922 3394 2156 3267 
Q 2391 3141 2538 2938 
L 2538 4581 
L 3097 4581 
L 3097 0 
L 2575 0 
z
M 797 1656 
Q 797 1019 1065 703 
Q 1334 388 1700 388 
Q 2069 388 2326 689 
Q 2584 991 2584 1609 
Q 2584 2291 2321 2609 
Q 2059 2928 1675 2928 
Q 1300 2928 1048 2622 
Q 797 2316 797 1656 
z
" transform="scale(0.015625)"/>
      <path id="ArialMT-3d" d="M 3381 2694 
L 356 2694 
L 356 3219 
L 3381 3219 
L 3381 2694 
z
M 3381 1303 
L 356 1303 
L 356 1828 
L 3381 1828 
L 3381 1303 
z
" transform="scale(0.015625)"/>
      <path id="ArialMT-2b" d="M 1603 741 
L 1603 1997 
L 356 1997 
L 356 2522 
L 1603 2522 
L 1603 3769 
L 2134 3769 
L 2134 2522 
L 3381 2522 
L 3381 1997 
L 2134 1997 
L 2134 741 
L 1603 741 
z
" transform="scale(0.015625)"/>
      <path id="ArialMT-31" d="M 2384 0 
L 1822 0 
L 1822 3584 
Q 1619 3391 1289 3197 
Q 959 3003 697 2906 
L 697 3450 
Q 1169 3672 1522 3987 
Q 1875 4303 2022 4600 
L 2384 4600 
L 2384 0 
z
" transform="scale(0.015625)"/>
     </defs>
     <use xlink:href="#ArialMT-2a"/>
     <use xlink:href="#ArialMT-2a" transform="translate(38.916016 0)"/>
     <use xlink:href="#ArialMT-2a" transform="translate(77.832031 0)"/>
     <use xlink:href="#ArialMT-20" transform="translate(116.748047 0)"/>
     <use xlink:href="#ArialMT-64" transform="translate(144.53125 0)"/>
     <use xlink:href="#ArialMT-3d" transform="translate(200.146484 0)"/>
     <use xlink:href="#ArialMT-2b" transform="translate(258.544922 0)"/>
     <use xlink:href="#ArialMT-30" transform="translate(316.943359 0)"/>
     <use xlink:href="#ArialMT-2e" transform="translate(372.558594 0)"/>
     <use xlink:href="#ArialMT-31" transform="translate(400.341797 0)"/>
     <use xlink:href="#ArialMT-30" transform="translate(455.957031 0)"/>
    </g>
   </g>
   <g id="text_24">
    <!-- *** d=+0.41 -->
    <g style="fill: #262626" transform="translate(110.540295 135.321727) scale(0.135 -0.135)">
     <use xlink:href="#ArialMT-2a"/>
     <use xlink:href="#ArialMT-2a" transform="translate(38.916016 0)"/>
     <use xlink:href="#ArialMT-2a" transform="translate(77.832031 0)"/>
     <use xlink:href="#ArialMT-20" transform="translate(116.748047 0)"/>
     <use xlink:href="#ArialMT-64" transform="translate(144.53125 0)"/>
     <use xlink:href="#ArialMT-3d" transform="translate(200.146484 0)"/>
     <use xlink:href="#ArialMT-2b" transform="translate(258.544922 0)"/>
     <use xlink:href="#ArialMT-30" transform="translate(316.943359 0)"/>
     <use xlink:href="#ArialMT-2e" transform="translate(372.558594 0)"/>
     <use xlink:href="#ArialMT-34" transform="translate(400.341797 0)"/>
     <use xlink:href="#ArialMT-31" transform="translate(455.957031 0)"/>
    </g>
   </g>
   <g id="text_25">
    <!-- *** d=+0.17 -->
    <g style="fill: #262626" transform="translate(236.592728 213.588507) scale(0.135 -0.135)">
     <defs>
      <path id="ArialMT-37" d="M 303 3981 
L 303 4522 
L 3269 4522 
L 3269 4084 
Q 2831 3619 2401 2847 
Q 1972 2075 1738 1259 
Q 1569 684 1522 0 
L 944 0 
Q 953 541 1156 1306 
Q 1359 2072 1739 2783 
Q 2119 3494 2547 3981 
L 303 3981 
z
" transform="scale(0.015625)"/>
     </defs>
     <use xlink:href="#ArialMT-2a"/>
     <use xlink:href="#ArialMT-2a" transform="translate(38.916016 0)"/>
     <use xlink:href="#ArialMT-2a" transform="translate(77.832031 0)"/>
     <use xlink:href="#ArialMT-20" transform="translate(116.748047 0)"/>
     <use xlink:href="#ArialMT-64" transform="translate(144.53125 0)"/>
     <use xlink:href="#ArialMT-3d" transform="translate(200.146484 0)"/>
     <use xlink:href="#ArialMT-2b" transform="translate(258.544922 0)"/>
     <use xlink:href="#ArialMT-30" transform="translate(316.943359 0)"/>
     <use xlink:href="#ArialMT-2e" transform="translate(372.558594 0)"/>
     <use xlink:href="#ArialMT-31" transform="translate(400.341797 0)"/>
     <use xlink:href="#ArialMT-37" transform="translate(455.957031 0)"/>
    </g>
   </g>
   <g id="text_26">
    <!-- *** d=+0.38 -->
    <g style="fill: #262626" transform="translate(221.599708 183.727281) scale(0.135 -0.135)">
     <defs>
      <path id="ArialMT-38" d="M 1131 2484 
Q 781 2613 612 2850 
Q 444 3088 444 3419 
Q 444 3919 803 4259 
Q 1163 4600 1759 4600 
Q 2359 4600 2725 4251 
Q 3091 3903 3091 3403 
Q 3091 3084 2923 2848 
Q 2756 2613 2416 2484 
Q 2838 2347 3058 2040 
Q 3278 1734 3278 1309 
Q 3278 722 2862 322 
Q 2447 -78 1769 -78 
Q 1091 -78 675 323 
Q 259 725 259 1325 
Q 259 1772 486 2073 
Q 713 2375 1131 2484 
z
M 1019 3438 
Q 1019 3113 1228 2906 
Q 1438 2700 1772 2700 
Q 2097 2700 2305 2904 
Q 2513 3109 2513 3406 
Q 2513 3716 2298 3927 
Q 2084 4138 1766 4138 
Q 1444 4138 1231 3931 
Q 1019 3725 1019 3438 
z
M 838 1322 
Q 838 1081 952 856 
Q 1066 631 1291 507 
Q 1516 384 1775 384 
Q 2178 384 2440 643 
Q 2703 903 2703 1303 
Q 2703 1709 2433 1975 
Q 2163 2241 1756 2241 
Q 1359 2241 1098 1978 
Q 838 1716 838 1322 
z
" transform="scale(0.015625)"/>
     </defs>
     <use xlink:href="#ArialMT-2a"/>
     <use xlink:href="#ArialMT-2a" transform="translate(38.916016 0)"/>
     <use xlink:href="#ArialMT-2a" transform="translate(77.832031 0)"/>
     <use xlink:href="#ArialMT-20" transform="translate(116.748047 0)"/>
     <use xlink:href="#ArialMT-64" transform="translate(144.53125 0)"/>
     <use xlink:href="#ArialMT-3d" transform="translate(200.146484 0)"/>
     <use xlink:href="#ArialMT-2b" transform="translate(258.544922 0)"/>
     <use xlink:href="#ArialMT-30" transform="translate(316.943359 0)"/>
     <use xlink:href="#ArialMT-2e" transform="translate(372.558594 0)"/>
     <use xlink:href="#ArialMT-33" transform="translate(400.341797 0)"/>
     <use xlink:href="#ArialMT-38" transform="translate(455.957031 0)"/>
    </g>
   </g>
   <g id="text_27">
    <!-- *** d=-0.21 -->
    <g style="fill: #262626" transform="translate(349.347024 208.695149) scale(0.135 -0.135)">
     <defs>
      <path id="ArialMT-2d" d="M 203 1375 
L 203 1941 
L 1931 1941 
L 1931 1375 
L 203 1375 
z
" transform="scale(0.015625)"/>
     </defs>
     <use xlink:href="#ArialMT-2a"/>
     <use xlink:href="#ArialMT-2a" transform="translate(38.916016 0)"/>
     <use xlink:href="#ArialMT-2a" transform="translate(77.832031 0)"/>
     <use xlink:href="#ArialMT-20" transform="translate(116.748047 0)"/>
     <use xlink:href="#ArialMT-64" transform="translate(144.53125 0)"/>
     <use xlink:href="#ArialMT-3d" transform="translate(200.146484 0)"/>
     <use xlink:href="#ArialMT-2d" transform="translate(258.544922 0)"/>
     <use xlink:href="#ArialMT-30" transform="translate(291.845703 0)"/>
     <use xlink:href="#ArialMT-2e" transform="translate(347.460938 0)"/>
     <use xlink:href="#ArialMT-32" transform="translate(375.244141 0)"/>
     <use xlink:href="#ArialMT-31" transform="translate(430.859375 0)"/>
    </g>
   </g>
   <g id="text_28">
    <!-- ns d=-0.14 -->
    <g style="fill: #262626" transform="translate(335.10705 178.833923) scale(0.135 -0.135)">
     <use xlink:href="#ArialMT-6e"/>
     <use xlink:href="#ArialMT-73" transform="translate(55.615234 0)"/>
     <use xlink:href="#ArialMT-20" transform="translate(105.615234 0)"/>
     <use xlink:href="#ArialMT-64" transform="translate(133.398438 0)"/>
     <use xlink:href="#ArialMT-3d" transform="translate(189.013672 0)"/>
     <use xlink:href="#ArialMT-2d" transform="translate(247.412109 0)"/>
     <use xlink:href="#ArialMT-30" transform="translate(280.712891 0)"/>
     <use xlink:href="#ArialMT-2e" transform="translate(336.328125 0)"/>
     <use xlink:href="#ArialMT-31" transform="translate(364.111328 0)"/>
     <use xlink:href="#ArialMT-34" transform="translate(419.726562 0)"/>
    </g>
   </g>
   <g id="text_29">
    <!-- *** d=+0.34 -->
    <g style="fill: #262626" transform="translate(458.711554 87.992575) scale(0.135 -0.135)">
     <use xlink:href="#ArialMT-2a"/>
     <use xlink:href="#ArialMT-2a" transform="translate(38.916016 0)"/>
     <use xlink:href="#ArialMT-2a" transform="translate(77.832031 0)"/>
     <use xlink:href="#ArialMT-20" transform="translate(116.748047 0)"/>
     <use xlink:href="#ArialMT-64" transform="translate(144.53125 0)"/>
     <use xlink:href="#ArialMT-3d" transform="translate(200.146484 0)"/>
     <use xlink:href="#ArialMT-2b" transform="translate(258.544922 0)"/>
     <use xlink:href="#ArialMT-30" transform="translate(316.943359 0)"/>
     <use xlink:href="#ArialMT-2e" transform="translate(372.558594 0)"/>
     <use xlink:href="#ArialMT-33" transform="translate(400.341797 0)"/>
     <use xlink:href="#ArialMT-34" transform="translate(455.957031 0)"/>
    </g>
   </g>
   <g id="text_30">
    <!-- *** d=+0.36 -->
    <g style="fill: #262626" transform="translate(443.718534 58.131349) scale(0.135 -0.135)">
     <defs>
      <path id="ArialMT-36" d="M 3184 3459 
L 2625 3416 
Q 2550 3747 2413 3897 
Q 2184 4138 1850 4138 
Q 1581 4138 1378 3988 
Q 1113 3794 959 3422 
Q 806 3050 800 2363 
Q 1003 2672 1297 2822 
Q 1591 2972 1913 2972 
Q 2475 2972 2870 2558 
Q 3266 2144 3266 1488 
Q 3266 1056 3080 686 
Q 2894 316 2569 119 
Q 2244 -78 1831 -78 
Q 1128 -78 684 439 
Q 241 956 241 2144 
Q 241 3472 731 4075 
Q 1159 4600 1884 4600 
Q 2425 4600 2770 4297 
Q 3116 3994 3184 3459 
z
M 888 1484 
Q 888 1194 1011 928 
Q 1134 663 1356 523 
Q 1578 384 1822 384 
Q 2178 384 2434 671 
Q 2691 959 2691 1453 
Q 2691 1928 2437 2201 
Q 2184 2475 1800 2475 
Q 1419 2475 1153 2201 
Q 888 1928 888 1484 
z
" transform="scale(0.015625)"/>
     </defs>
     <use xlink:href="#ArialMT-2a"/>
     <use xlink:href="#ArialMT-2a" transform="translate(38.916016 0)"/>
     <use xlink:href="#ArialMT-2a" transform="translate(77.832031 0)"/>
     <use xlink:href="#ArialMT-20" transform="translate(116.748047 0)"/>
     <use xlink:href="#ArialMT-64" transform="translate(144.53125 0)"/>
     <use xlink:href="#ArialMT-3d" transform="translate(200.146484 0)"/>
     <use xlink:href="#ArialMT-2b" transform="translate(258.544922 0)"/>
     <use xlink:href="#ArialMT-30" transform="translate(316.943359 0)"/>
     <use xlink:href="#ArialMT-2e" transform="translate(372.558594 0)"/>
     <use xlink:href="#ArialMT-33" transform="translate(400.341797 0)"/>
     <use xlink:href="#ArialMT-36" transform="translate(455.957031 0)"/>
    </g>
   </g>
   <g id="legend_1">
    <g id="patch_19">
     <path d="M 92.885938 32.443203 
L 123.885938 32.443203 
L 123.885938 21.593203 
L 92.885938 21.593203 
z
" style="fill: #b2182b; stroke: #000000; stroke-linejoin: miter"/>
    </g>
    <g id="text_31">
     <!-- Original (n=123) -->
     <g style="fill: #262626" transform="translate(136.285938 32.443203) scale(0.155 -0.155)">
      <defs>
       <path id="ArialMT-4f" d="M 309 2231 
Q 309 3372 921 4017 
Q 1534 4663 2503 4663 
Q 3138 4663 3647 4359 
Q 4156 4056 4423 3514 
Q 4691 2972 4691 2284 
Q 4691 1588 4409 1038 
Q 4128 488 3612 205 
Q 3097 -78 2500 -78 
Q 1853 -78 1343 234 
Q 834 547 571 1087 
Q 309 1628 309 2231 
z
M 934 2222 
Q 934 1394 1379 917 
Q 1825 441 2497 441 
Q 3181 441 3623 922 
Q 4066 1403 4066 2288 
Q 4066 2847 3877 3264 
Q 3688 3681 3323 3911 
Q 2959 4141 2506 4141 
Q 1863 4141 1398 3698 
Q 934 3256 934 2222 
z
" transform="scale(0.015625)"/>
       <path id="ArialMT-28" d="M 1497 -1347 
Q 1031 -759 709 28 
Q 388 816 388 1659 
Q 388 2403 628 3084 
Q 909 3875 1497 4659 
L 1900 4659 
Q 1522 4009 1400 3731 
Q 1209 3300 1100 2831 
Q 966 2247 966 1656 
Q 966 153 1900 -1347 
L 1497 -1347 
z
" transform="scale(0.015625)"/>
       <path id="ArialMT-29" d="M 791 -1347 
L 388 -1347 
Q 1322 153 1322 1656 
Q 1322 2244 1188 2822 
Q 1081 3291 891 3722 
Q 769 4003 388 4659 
L 791 4659 
Q 1378 3875 1659 3084 
Q 1900 2403 1900 1659 
Q 1900 816 1576 28 
Q 1253 -759 791 -1347 
z
" transform="scale(0.015625)"/>
      </defs>
      <use xlink:href="#ArialMT-4f"/>
      <use xlink:href="#ArialMT-72" transform="translate(77.783203 0)"/>
      <use xlink:href="#ArialMT-69" transform="translate(111.083984 0)"/>
      <use xlink:href="#ArialMT-67" transform="translate(133.300781 0)"/>
      <use xlink:href="#ArialMT-69" transform="translate(188.916016 0)"/>
      <use xlink:href="#ArialMT-6e" transform="translate(211.132812 0)"/>
      <use xlink:href="#ArialMT-61" transform="translate(266.748047 0)"/>
      <use xlink:href="#ArialMT-6c" transform="translate(322.363281 0)"/>
      <use xlink:href="#ArialMT-20" transform="translate(344.580078 0)"/>
      <use xlink:href="#ArialMT-28" transform="translate(372.363281 0)"/>
      <use xlink:href="#ArialMT-6e" transform="translate(405.664062 0)"/>
      <use xlink:href="#ArialMT-3d" transform="translate(461.279297 0)"/>
      <use xlink:href="#ArialMT-31" transform="translate(519.677734 0)"/>
      <use xlink:href="#ArialMT-32" transform="translate(575.292969 0)"/>
      <use xlink:href="#ArialMT-33" transform="translate(630.908203 0)"/>
      <use xlink:href="#ArialMT-29" transform="translate(686.523438 0)"/>
     </g>
    </g>
    <g id="patch_20">
     <path d="M 92.885938 54.738984 
L 123.885938 54.738984 
L 123.885938 43.888984 
L 92.885938 43.888984 
z
" style="fill: #ef8a62; stroke: #000000; stroke-linejoin: miter"/>
    </g>
    <g id="text_32">
     <!-- Flanker (n=2,222) -->
     <g style="fill: #262626" transform="translate(136.285938 54.738984) scale(0.155 -0.155)">
      <defs>
       <path id="ArialMT-46" d="M 525 0 
L 525 4581 
L 3616 4581 
L 3616 4041 
L 1131 4041 
L 1131 2622 
L 3281 2622 
L 3281 2081 
L 1131 2081 
L 1131 0 
L 525 0 
z
" transform="scale(0.015625)"/>
       <path id="ArialMT-6b" d="M 425 0 
L 425 4581 
L 988 4581 
L 988 1969 
L 2319 3319 
L 3047 3319 
L 1778 2088 
L 3175 0 
L 2481 0 
L 1384 1697 
L 988 1316 
L 988 0 
L 425 0 
z
" transform="scale(0.015625)"/>
       <path id="ArialMT-2c" d="M 569 0 
L 569 641 
L 1209 641 
L 1209 0 
Q 1209 -353 1084 -570 
Q 959 -788 688 -906 
L 531 -666 
Q 709 -588 793 -436 
Q 878 -284 888 0 
L 569 0 
z
" transform="scale(0.015625)"/>
      </defs>
      <use xlink:href="#ArialMT-46"/>
      <use xlink:href="#ArialMT-6c" transform="translate(61.083984 0)"/>
      <use xlink:href="#ArialMT-61" transform="translate(83.300781 0)"/>
      <use xlink:href="#ArialMT-6e" transform="translate(138.916016 0)"/>
      <use xlink:href="#ArialMT-6b" transform="translate(194.53125 0)"/>
      <use xlink:href="#ArialMT-65" transform="translate(244.53125 0)"/>
      <use xlink:href="#ArialMT-72" transform="translate(300.146484 0)"/>
      <use xlink:href="#ArialMT-20" transform="translate(333.447266 0)"/>
      <use xlink:href="#ArialMT-28" transform="translate(361.230469 0)"/>
      <use xlink:href="#ArialMT-6e" transform="translate(394.53125 0)"/>
      <use xlink:href="#ArialMT-3d" transform="translate(450.146484 0)"/>
      <use xlink:href="#ArialMT-32" transform="translate(508.544922 0)"/>
      <use xlink:href="#ArialMT-2c" transform="translate(564.160156 0)"/>
      <use xlink:href="#ArialMT-32" transform="translate(591.943359 0)"/>
      <use xlink:href="#ArialMT-32" transform="translate(647.558594 0)"/>
      <use xlink:href="#ArialMT-32" transform="translate(703.173828 0)"/>
      <use xlink:href="#ArialMT-29" transform="translate(758.789062 0)"/>
     </g>
    </g>
    <g id="patch_21">
     <path d="M 92.885938 77.034766 
L 123.885938 77.034766 
L 123.885938 66.184766 
L 92.885938 66.184766 
z
" style="fill: #9aa7b1; stroke: #000000; stroke-linejoin: miter"/>
    </g>
    <g id="text_33">
     <!-- Clone (n=12,028) -->
     <g style="fill: #262626" transform="translate(136.285938 77.034766) scale(0.155 -0.155)">
      <use xlink:href="#ArialMT-43"/>
      <use xlink:href="#ArialMT-6c" transform="translate(72.216797 0)"/>
      <use xlink:href="#ArialMT-6f" transform="translate(94.433594 0)"/>
      <use xlink:href="#ArialMT-6e" transform="translate(150.048828 0)"/>
      <use xlink:href="#ArialMT-65" transform="translate(205.664062 0)"/>
      <use xlink:href="#ArialMT-20" transform="translate(261.279297 0)"/>
      <use xlink:href="#ArialMT-28" transform="translate(289.0625 0)"/>
      <use xlink:href="#ArialMT-6e" transform="translate(322.363281 0)"/>
      <use xlink:href="#ArialMT-3d" transform="translate(377.978516 0)"/>
      <use xlink:href="#ArialMT-31" transform="translate(436.376953 0)"/>
      <use xlink:href="#ArialMT-32" transform="translate(491.992188 0)"/>
      <use xlink:href="#ArialMT-2c" transform="translate(547.607422 0)"/>
      <use xlink:href="#ArialMT-30" transform="translate(575.390625 0)"/>
      <use xlink:href="#ArialMT-32" transform="translate(631.005859 0)"/>
      <use xlink:href="#ArialMT-38" transform="translate(686.621094 0)"/>
      <use xlink:href="#ArialMT-29" transform="translate(742.236328 0)"/>
     </g>
    </g>
   </g>
  </g>
 </g>
 <defs>
  <clipPath id="p8bad20aa92">
   <rect x="78.935938" y="7.2" width="465.45" height="323.74"/>
  </clipPath>
 </defs>
</svg>
